<?xml version="1.0" ?><svg viewBox="0 0 512 512" xmlns="http://www.w3.org/2000/svg"><g id="Bone_Density"><path d="M433.8584,245.1332a50.117,50.117,0,1,0-93.1338-32.8144H171.2754a50.1169,50.1169,0,1,0-93.1338,32.8144,22.2921,22.2921,0,0,1,0,21.7344,50.1179,50.1179,0,0,0,41.6914,74.6c.67.0264,1.335.04,2.0005.0391a50.2275,50.2275,0,0,0,49.4419-41.8242H340.7246a50.2231,50.2231,0,0,0,49.4419,41.8242q.9954,0,2-.0391a50.1179,50.1179,0,0,0,41.6914-74.6A22.2921,22.2921,0,0,1,433.8584,245.1332Zm-131.175,41.5489H159.1812l-.2525,6.2373a37.1139,37.1139,0,1,1-69.457-19.6778,35.3668,35.3668,0,0,0,0-34.4824,37.1148,37.1148,0,1,1,69.457-19.6777l.2525,6.2373H322.7986ZM337.84,265.3526A9.3522,9.3522,0,1,1,347.192,256,9.3522,9.3522,0,0,1,337.84,265.3526Zm31.9678,36.85a9.3522,9.3522,0,1,1,9.3521-9.3522A9.3522,9.3522,0,0,1,369.8076,302.2027Zm0-36.85A9.3522,9.3522,0,1,1,379.16,256,9.3522,9.3522,0,0,1,369.8076,265.3526Zm0-36.85A9.3522,9.3522,0,1,1,379.16,219.15,9.3522,9.3522,0,0,1,369.8076,228.5025Zm31.6153,92.1252a9.3522,9.3522,0,1,1,9.3522-9.3521A9.3521,9.3521,0,0,1,401.4229,320.6277Zm0-36.85a9.3522,9.3522,0,1,1,9.3522-9.3522A9.3522,9.3522,0,0,1,401.4229,283.7777Zm0-36.85a9.3522,9.3522,0,1,1,9.3522-9.3522A9.3522,9.3522,0,0,1,401.4229,246.9276Zm0-36.85a9.3522,9.3522,0,1,1,9.3522-9.3522A9.3522,9.3522,0,0,1,401.4229,210.0775Z"/></g></svg>